<svg width="100%" height="100%" viewBox="0 0 3750 2813" version="1.1" xmlns="http://www.w3.org/2000/svg" xmlnsXlink="http://www.w3.org/1999/xlink" xmlSpace="preserve" style="fill-rule:evenodd;clip-rule:evenodd;stroke-linecap:round;stroke-linejoin:round;stroke-miterlimit:1.5;">
  <defs>
    <style>
      @import url("https://fonts.googleapis.com/css2?family=Poppins:wght@300;400;500;600;700");
    </style>
  </defs>

  
  <path d="M1875,2319.06c-168.421,107.925 -368.625,170.522 -583.333,170.522c-597.908,0 -1083.33,-485.425 -1083.33,-1083.33c0,-597.908 485.426,-1083.33 1083.33,-1083.33c214.708,-0 414.912,62.597 583.333,170.522c-300.61,192.615 -500,529.612 -500,912.811c0,383.199 199.39,720.196 500,912.811Z"/>
  <path d="M1875,493.439c168.421,-107.925 368.625,-170.522 583.333,-170.522c597.908,-0 1083.33,485.425 1083.33,1083.33c-0,597.908 -485.426,1083.33 -1083.33,1083.33c-214.708,0 -414.912,-62.597 -583.333,-170.522c300.61,-192.615 500,-529.612 500,-912.811c0,-383.199 -199.39,-720.196 -500,-912.811Z" style="fill:#fff;stroke:#000;stroke-width:4.36px;"/>
  <path d="M1875,493.439c94.305,60.426 178.649,135.061 250,220.875c156.089,187.728 250,428.951 250,691.936c0,383.199 -199.39,720.196 -500,912.811c-300.61,-192.615 -500,-529.612 -500,-912.811c0,-383.199 199.39,-720.196 500,-912.811Z" style="fill:#bb73f1;stroke:#bb73f1;stroke-width:4.04px;"/>
  <g transform="matrix(3.50947,0,0,3.50947,-155.04,181.786)">
    <text x="140px" y="330px" style="font-family:'Poppins', sans-serif;font-size:55.842px;fill:#fff;">Artsy</text>
    <text x="140px" y="391.426px" style="font-family:'Poppins', sans-serif;font-size:55.842px;fill:#fff;">Designers</text>
  </g>
  <text x="1490.2px" y="1482.19px" style="font-family:'Poppins', sans-serif;font-weight:600;font-size:195.976px;fill:#fff;">Unicorn</text>
  <g transform="matrix(3.50947,0,0,3.50947,2104.24,211.966)">
    <text x="140px" y="330px" style="font-family:'Poppins', sans-serif;font-size:55.842px;">Techy</text>
    <text x="140px" y="391.426px" style="font-family:'Poppins', sans-serif;font-size:55.842px;">Coders</text>
  </g>
</svg>